<svg width="17" height="17" viewBox="0 0 17 17" fill="none" xmlns="http://www.w3.org/2000/svg">
<path d="M8.5 0C13.1945 0 16.9999 3.80544 16.9999 8.49984C16.9999 13.1938 13.1944 17.0001 8.5 17.0001C3.80551 17 0 13.1938 0 8.49984C0 3.80544 3.80551 0 8.5 0Z" fill="#646669"/>
<path d="M12.1901 5.74892C12.1901 5.74892 11.1381 4.92604 9.89606 4.8313L9.78365 5.05505C10.9073 5.3301 11.4219 5.72403 11.9607 6.20774C11.0325 5.73416 10.1164 5.29011 8.5196 5.29011C6.92283 5.29011 6.00594 5.73416 5.0786 6.20774C5.61589 5.72403 6.22937 5.28677 7.2549 5.05505L7.14324 4.8313C5.83921 4.95471 4.84924 5.74892 4.84924 5.74892C4.84924 5.74892 3.67422 7.45215 3.47278 10.7958C4.65675 12.1615 6.45496 12.1722 6.45496 12.1722L6.83079 11.6711C6.1924 11.4492 5.47168 11.0524 4.84914 10.3371C5.59163 10.8985 6.71298 11.484 8.5196 11.484C10.3262 11.484 11.4467 10.8992 12.1901 10.3371C11.5668 11.0524 10.846 11.4492 10.2084 11.6711L10.5842 12.1722C10.5842 12.1722 12.3817 12.1615 13.5664 10.7958C13.3642 7.45215 12.1901 5.74892 12.1901 5.74892ZM7.02846 9.87802C6.58472 9.87802 6.2256 9.4675 6.2256 8.9604C6.2256 8.45373 6.58483 8.04288 7.02846 8.04288C7.47219 8.04288 7.83142 8.45373 7.83142 8.9604C7.83142 9.4676 7.47219 9.87802 7.02846 9.87802ZM10.0107 9.87802C9.56701 9.87802 9.20778 9.4675 9.20778 8.9604C9.20778 8.45373 9.56701 8.04288 10.0107 8.04288C10.4544 8.04288 10.8136 8.45373 10.8136 8.9604C10.8136 9.4676 10.4536 9.87802 10.0107 9.87802Z" fill="#202931"/>
</svg>
