<svg width="18" height="18" viewBox="0 0 18 18" fill="none" xmlns="http://www.w3.org/2000/svg">
<path d="M8.05263 16.1053C12.5 16.1053 16.1053 12.5 16.1053 8.05263C16.1053 3.6053 12.5 0 8.05263 0C3.6053 0 0 3.6053 0 8.05263C0 12.5 3.6053 16.1053 8.05263 16.1053Z" fill="url(#paint0_linear_44_35)"/>
<path d="M2.98519 8.2622C3.95437 7.74652 5.03624 7.31613 6.04709 6.88354C7.78614 6.175 9.5321 5.47873 11.2957 4.83051C11.6388 4.72006 12.2553 4.61205 12.3158 5.10323C12.2827 5.7985 12.1465 6.4897 12.0531 7.18089C11.816 8.7009 11.542 10.2157 11.2748 11.7307C11.1828 12.2353 10.5283 12.4966 10.1096 12.1736C9.10319 11.517 8.0891 10.8668 7.09559 10.1949C6.77015 9.8755 7.07193 9.41679 7.36259 9.18868C8.19145 8.39965 9.07048 7.72927 9.85603 6.89946C10.0679 6.40517 9.44184 6.82175 9.23533 6.94938C8.1006 7.70471 6.99365 8.50616 5.7973 9.16999C5.1862 9.49494 4.47396 9.21724 3.86314 9.03592C3.31546 8.81689 2.51296 8.59619 2.98519 8.2622Z" fill="#202931"/>
<defs>
<linearGradient id="paint0_linear_44_35" x1="6.04041" y1="0.671589" x2="2.0141" y2="10.0658" gradientUnits="userSpaceOnUse">
<stop stop-color="#646669"/>
<stop offset="1" stop-color="#646669"/>
</linearGradient>
</defs>
</svg>
