<svg width="17" height="17" viewBox="0 0 17 17" fill="none" xmlns="http://www.w3.org/2000/svg">
<path d="M8.5 0C3.80548 0 0 3.80548 0 8.5C0 13.1945 3.80548 17 8.5 17C13.1945 17 17 13.1945 17 8.5C17 3.80548 13.1945 0 8.5 0ZM13.0682 11.7256C12.7054 11.9525 11.2314 12.0201 10.8745 11.7608C10.6788 11.6186 10.4998 11.4407 10.3298 11.2713C10.2109 11.1529 10.0759 11.0955 9.97369 10.967C9.89027 10.8618 9.833 10.7377 9.74517 10.6338C9.59693 10.4596 9.36878 10.3114 9.18832 10.5243C8.91653 10.8445 9.23104 11.4733 8.86865 11.7125C8.74712 11.7928 8.62448 11.816 8.47256 11.8046L8.13613 11.8199C7.93855 11.8238 7.62551 11.8256 7.40067 11.7851C7.14987 11.7398 6.94271 11.6028 6.71585 11.5023C6.28532 11.3113 5.87524 11.0511 5.56312 10.6907C4.71367 9.70926 3.57272 8.3595 3.12949 7.12556C3.03834 6.872 2.79749 6.36984 3.02582 6.15237C3.33629 5.9268 4.86006 5.86327 5.09779 6.21203C5.19428 6.35382 5.25523 6.56117 5.32355 6.72192C5.40862 6.92227 5.45466 7.11101 5.58761 7.28834C5.70527 7.4456 5.79201 7.60378 5.88297 7.77614C5.98517 7.96967 6.08166 8.15529 6.20596 8.33335C6.29029 8.45452 6.51329 8.69556 6.65416 8.71342C6.99814 8.75743 6.97678 7.92161 6.95118 7.71758C6.92669 7.52092 6.92043 7.31228 6.92687 7.11286C6.9324 6.94271 6.94768 6.70296 6.84696 6.56411C6.6827 6.33762 6.31681 6.50703 6.28827 6.20264C6.34867 6.11628 6.33596 6.03968 6.73942 5.90673C7.05725 5.80232 7.26256 5.80563 7.47212 5.82239C7.89933 5.85664 8.35232 5.741 8.7648 5.87947C9.15886 6.01224 9.09791 6.57222 9.08465 6.90772C9.06679 7.36568 9.08594 7.81278 9.08465 8.27774C9.0841 8.48932 9.07563 8.69537 9.33379 8.67806C9.57576 8.66204 9.60043 8.45838 9.71589 8.29045C9.87646 8.05622 10.024 7.81867 10.1875 7.58537C10.4079 7.26993 10.4746 6.91546 10.6821 6.59229C10.7563 6.47683 10.8202 6.23082 10.9345 6.13948C11.0211 6.07006 11.1855 6.10634 11.2903 6.10634H11.5394C11.73 6.10634 11.9245 6.10486 12.1204 6.11168C12.4025 6.12144 12.7185 6.05662 12.9982 6.09621C14.2053 6.26654 11.4811 8.84692 11.6229 9.30765C11.7208 9.62584 12.3423 9.98142 12.5666 10.242C12.8644 10.5891 13.781 11.2791 13.0682 11.7256Z" fill="#646669"/>
</svg>
